# Rhino

g Default
o object_1
v -1 0 1
v -1 2 1
v -1 0 -1
v -1 2 -1
v 1 0 1
v 1 2 1
v 1 0 -1
v 1 2 -1
vt 0.3333333432674408 0
vt 0.3333333432674408 0.3333333432674408
vt 0.6652018427848816 0
vt 0.6652018427848816 0.3333333432674408
vt 0.99853515625 0.3333333432674408
vt 0.6666666865348816 0.3333333432674408
vt 0.99853515625 0.6652018427848816
vt 0.6666666865348816 0.6652018427848816
vt 0.99853515625 0
vt 0.6666666865348816 0
vt 0.99853515625 0.3318684995174408
vt 0.6666666865348816 0.3318684995174408
vt 0.3318684995174408 0.3333333432674408
vt 0 0.3333333432674408
vt 0.3318684995174408 0.6652018427848816
vt 0 0.6652018427848816
vt 0.3318684995174408 0
vt 0 0
vt 0.3318684995174408 0.3318684995174408
vt 0 0.3318684995174408
vn 1 0 0
vn 1 0 0
vn 1 0 0
vn 1 0 0
vn 0 0 1
vn 0 0 1
vn 0 0 1
vn 0 0 1
vn -1 0 0
vn -1 0 0
vn -1 0 0
vn -1 0 0
vn 0 0 -1
vn 0 0 -1
vn 0 0 -1
vn 0 0 -1
vn 0 1 0
vn 0 1 0
vn 0 1 0
vn 0 1 0
f 4/2/2 2/4/4 1/3/3 3/1/1
f 8/6/6 4/8/8 3/7/7 7/5/5
f 6/10/10 8/12/12 7/11/11 5/9/9
f 2/14/14 6/16/16 5/15/15 1/13/13
f 3/18/18 1/17/17 5/19/19 7/20/20
